<svg width="10" height="13" viewBox="0 0 10 13" fill="none" xmlns="http://www.w3.org/2000/svg">
<path fill-rule="evenodd" clip-rule="evenodd" d="M-3.05176e-05 5.67504C-3.05176e-05 2.94854 2.23074 0.717773 4.95723 0.717773C7.68373 0.717773 9.9145 2.94854 9.9145 5.67504C9.9145 9.34341 5.40339 12.4169 5.25467 12.5161C5.15552 12.5656 5.05638 12.6152 4.95723 12.6152C4.85809 12.6152 4.75894 12.5656 4.6598 12.5161C4.51108 12.4169 -3.05176e-05 9.34341 -3.05176e-05 5.67504ZM0.991814 5.67542C0.991814 8.35234 4.01575 10.831 4.95763 11.525C5.89951 10.831 8.92344 8.35234 8.92344 5.67542C8.92344 3.49423 7.13882 1.70961 4.95763 1.70961C2.77643 1.70961 0.991814 3.49423 0.991814 5.67542ZM4.95723 3.69203C3.86663 3.69203 2.97433 4.58434 2.97433 5.67494C2.97433 6.76554 3.86663 7.65784 4.95723 7.65784C6.04783 7.65784 6.94014 6.76554 6.94014 5.67494C6.94014 4.58434 6.04783 3.69203 4.95723 3.69203ZM3.96617 5.67542C3.96617 6.22072 4.41233 6.66687 4.95763 6.66687C5.50292 6.66687 5.94908 6.22072 5.94908 5.67542C5.94908 5.13012 5.50292 4.68397 4.95763 4.68397C4.41233 4.68397 3.96617 5.13012 3.96617 5.67542Z" fill="#EE5D5D"/>
</svg>
