<svg width="60" height="59" viewBox="0 0 60 59" fill="none" xmlns="http://www.w3.org/2000/svg">
<g filter="url(#filter0_d_1_4823)">
<rect x="4.83984" y="0.0554199" width="50.8067" height="50.8067" fill="white"/>
<path d="M40.8105 16.1536L37.2515 17.9668L20.0657 26.7204C20.0076 26.2772 19.9783 25.8306 19.9781 25.3836C19.9829 21.7544 21.9087 18.399 25.0399 16.5641C28.171 14.7292 32.0396 14.6891 35.2082 16.4587L37.2453 15.4208L37.5491 15.2657C33.7442 12.504 28.7117 12.1098 24.5232 14.2455C20.3346 16.3812 17.698 20.6858 17.6985 25.3874C17.6985 25.7058 17.7105 26.023 17.7347 26.339C17.804 27.2539 17.3167 28.1209 16.4992 28.5374L15.425 29.0851V31.6399L18.5876 30.028L19.6117 29.5053L20.6209 28.9913L38.7384 19.76L40.7742 18.7234L44.9822 16.5787V14.0252L40.8105 16.1536Z" fill="black"/>
<path d="M44.9818 19.1348L21.6497 31.0147L19.6138 32.0538L15.4246 34.1885V36.7408L19.5851 34.6211L23.1441 32.8079L40.3474 24.0418C40.4055 24.4879 40.4348 24.9374 40.4349 25.3873C40.4327 29.0209 38.5047 32.381 35.3689 34.2166C32.233 36.0521 28.3592 36.0881 25.1899 34.311L25.0648 34.3773L22.8564 35.5028C26.6605 38.2645 31.6921 38.6596 35.8806 36.5254C40.0691 34.3912 42.7068 30.0882 42.7084 25.3873C42.7084 25.066 42.6959 24.7446 42.6721 24.4269C42.603 23.5124 43.0896 22.6457 43.9064 22.2285L44.9818 21.6808V19.1348Z" fill="black"/>
</g>
<defs>
<filter id="filter0_d_1_4823" x="0.419922" y="0" width="60" height="59" filterUnits="userSpaceOnUse" color-interpolation-filters="sRGB">
<feFlood flood-opacity="0" result="BackgroundImageFix"/>
<feColorMatrix in="SourceAlpha" type="matrix" values="0 0 0 0 0 0 0 0 0 0 0 0 0 0 0 0 0 0 127 0" result="hardAlpha"/>
<feOffset dy="4"/>
<feGaussianBlur stdDeviation="2"/>
<feColorMatrix type="matrix" values="0 0 0 0 0 0 0 0 0 0 0 0 0 0 0 0 0 0 0.05 0"/>
<feBlend mode="normal" in2="BackgroundImageFix" result="effect1_dropShadow_1_4823"/>
<feBlend mode="normal" in="SourceGraphic" in2="effect1_dropShadow_1_4823" result="shape"/>
</filter>
</defs>
</svg>
