<svg width="51" height="51" viewBox="0 0 51 51" fill="none" xmlns="http://www.w3.org/2000/svg">
<mask id="mask0_1_4790" style="mask-type:luminance" maskUnits="userSpaceOnUse" x="0" y="0" width="51" height="51">
<rect width="50.8067" height="50.8067" rx="25.4033" fill="white"/>
</mask>
<g mask="url(#mask0_1_4790)">
<rect width="50.8067" height="50.8067" fill="#F7931A"/>
<path fill-rule="evenodd" clip-rule="evenodd" d="M36.4537 21.9753C36.9602 18.5831 34.3822 16.7596 30.8569 15.5432L32.0006 10.9481L29.2084 10.2511L28.0951 14.7252C27.3611 14.5418 26.6073 14.369 25.858 14.1977L26.9794 9.69406L24.189 8.99707L23.0447 13.5907C22.4373 13.4521 21.8407 13.3152 21.2619 13.1709L21.2651 13.1564L17.4146 12.1932L16.6719 15.1807C16.6719 15.1807 18.7434 15.6564 18.6998 15.6857C19.8304 15.9684 20.0349 16.7182 20.001 17.3126L18.6983 22.5474C18.7761 22.5672 18.8771 22.5959 18.9886 22.6408C18.8954 22.6176 18.7963 22.5923 18.6934 22.5676L16.8675 29.9009C16.7293 30.2451 16.3786 30.7615 15.5881 30.5654C15.6161 30.606 13.5587 30.058 13.5587 30.058L12.1725 33.2599L15.806 34.1673C16.482 34.3371 17.1444 34.5148 17.7967 34.6819L16.6413 39.3297L19.4302 40.0267L20.5744 35.4282C21.3364 35.6354 22.0757 35.8266 22.7996 36.0067L21.6592 40.5835L24.4515 41.2805L25.6068 36.6414C30.368 37.5441 33.9481 37.1802 35.455 32.8659C36.6692 29.3925 35.3946 27.389 32.8897 26.0825C34.7141 25.6609 36.0883 24.4588 36.4547 21.9757L36.4538 21.975L36.4537 21.9753ZM30.0744 30.9369C29.2115 34.4104 23.3737 32.5327 21.481 32.0619L23.0142 25.9044C24.9068 26.3777 30.9762 27.3144 30.0745 30.9369H30.0744ZM30.9379 21.925C30.1508 25.0845 25.2919 23.4794 23.7157 23.0858L25.1058 17.5013C26.682 17.8949 31.7579 18.6295 30.9382 21.925H30.9379Z" fill="white"/>
</g>
</svg>
