<svg width="48" height="48" viewBox="0 0 48 48" fill="none" xmlns="http://www.w3.org/2000/svg">
<circle cx="24.0266" cy="23.8" r="23.8" fill="#1C75BC"/>
<rect x="0.226562" width="47.6" height="47.6" rx="19.8333" fill="#1C75BC"/>
<path fill-rule="evenodd" clip-rule="evenodd" d="M36.4082 14.5632H15.0732L13.5715 19.2949H32.9798H39.7515C39.7515 19.2949 41.0832 14.5632 36.4082 14.5632ZM21.2216 21.8448H9.71825L8.21658 26.2365H19.7482L21.2216 21.8448ZM8.95307 33.5181L10.4831 28.7865H29.8631H29.92L29.9199 28.7866H36.7197C36.7079 28.8162 34.8357 33.5181 30.4014 33.5181H8.95307ZM36.7197 28.7866H36.7199L39.7516 19.295H32.9799L29.92 28.7865H36.7197C36.7197 28.7865 36.7197 28.7865 36.7197 28.7866Z" fill="white"/>
</svg>
