<svg width="52" height="51" viewBox="0 0 52 51" fill="none" xmlns="http://www.w3.org/2000/svg">
<mask id="mask0_1_4815" style="mask-type:luminance" maskUnits="userSpaceOnUse" x="0" y="0" width="52" height="51">
<rect x="0.613281" width="50.8067" height="50.8067" rx="25.4033" fill="white"/>
</mask>
<g mask="url(#mask0_1_4815)">
<rect x="0.613281" width="50.8067" height="50.8067" fill="#345D9D"/>
<path fill-rule="evenodd" clip-rule="evenodd" d="M26.447 26.2645L23.8021 35.1833H37.9492C38.1384 35.1767 38.3226 35.2456 38.461 35.3748C38.5994 35.504 38.6808 35.683 38.6873 35.8722V36.106L37.4571 40.3501C37.3454 40.7635 36.9623 41.0444 36.5344 41.0267H14.8833L18.5123 28.6634L14.4527 29.8936L15.3753 27.0641L19.4349 25.8339L24.5402 8.48833C24.6558 8.07765 25.0364 7.79858 25.4628 7.81172H30.9371C31.1264 7.80509 31.3105 7.87396 31.449 8.00318C31.5874 8.1324 31.6688 8.31136 31.6752 8.50063V8.73436L27.3696 23.3736L31.4292 22.1434L30.5681 25.0958L26.447 26.2645Z" fill="white"/>
</g>
</svg>
