<svg width="60" height="59" viewBox="0 0 60 59" fill="none" xmlns="http://www.w3.org/2000/svg">
<g filter="url(#filter0_d_1_4801)">
<mask id="mask0_1_4801" style="mask-type:luminance" maskUnits="userSpaceOnUse" x="4" y="0" width="52" height="51">
<rect x="4.80664" width="50.8067" height="50.8067" rx="25.4033" fill="white"/>
</mask>
<g mask="url(#mask0_1_4801)">
<rect x="4.80664" width="50.8067" height="50.8067" fill="white"/>
<path d="M30.2065 6.88013L29.952 7.74434V32.8197L30.2065 33.0736L41.846 26.1934L30.2065 6.88013Z" fill="#343434"/>
<path d="M30.2066 6.88062L18.5668 26.1939L30.2066 33.074V20.9032V6.88062Z" fill="#8C8C8C"/>
<path d="M30.2066 35.2773L30.0632 35.4521V44.3844L30.2066 44.803L41.8532 28.4006L30.2066 35.2773Z" fill="#3C3C3B"/>
<path d="M30.2065 44.803V35.2773L18.5668 28.4006L30.2065 44.803Z" fill="#8C8C8C"/>
<path d="M30.2066 33.0735L41.8461 26.1933L30.2066 20.9026V33.0735Z" fill="#141414"/>
<path d="M18.5668 26.1933L30.2065 33.0735V20.9026L18.5668 26.1933Z" fill="#393939"/>
</g>
</g>
<defs>
<filter id="filter0_d_1_4801" x="0.806641" y="0" width="58.8067" height="58.8066" filterUnits="userSpaceOnUse" color-interpolation-filters="sRGB">
<feFlood flood-opacity="0" result="BackgroundImageFix"/>
<feColorMatrix in="SourceAlpha" type="matrix" values="0 0 0 0 0 0 0 0 0 0 0 0 0 0 0 0 0 0 127 0" result="hardAlpha"/>
<feOffset dy="4"/>
<feGaussianBlur stdDeviation="2"/>
<feColorMatrix type="matrix" values="0 0 0 0 0 0 0 0 0 0 0 0 0 0 0 0 0 0 0.05 0"/>
<feBlend mode="normal" in2="BackgroundImageFix" result="effect1_dropShadow_1_4801"/>
<feBlend mode="normal" in="SourceGraphic" in2="effect1_dropShadow_1_4801" result="shape"/>
</filter>
</defs>
</svg>
